<?xml version="1.0" standalone="no"?>
<!DOCTYPE svg PUBLIC "-//W3C//DTD SVG 20010904//EN"
 "http://www.w3.org/TR/2001/REC-SVG-20010904/DTD/svg10.dtd">
<svg version="1.0" xmlns="http://www.w3.org/2000/svg"
 width="260.000000pt" height="260.000000pt" viewBox="0 0 260.000000 260.000000"
 preserveAspectRatio="xMidYMid meet">
<metadata>
Created by potrace 1.11, written by Peter Selinger 2001-2013
</metadata>
<g transform="translate(0.000000,260.000000) scale(0.100000,-0.100000)"
fill="#000000" stroke="none">
<path d="M1144 2475 c-4 -9 -2 -21 4 -27 15 -15 44 -1 40 19 -4 23 -36 29 -44
8z"/>
<path d="M1298 2478 c-7 -18 2 -38 16 -38 18 0 35 21 29 36 -6 17 -39 18 -45
2z"/>
<path d="M1003 2463 c-16 -6 -17 -25 -2 -40 14 -14 39 -6 39 12 0 17 -22 33
-37 28z"/>
<path d="M1450 2451 c0 -27 19 -36 37 -18 18 18 9 37 -18 37 -12 0 -19 -7 -19
-19z"/>
<path d="M1597 2416 c-9 -22 19 -42 37 -26 19 15 10 40 -14 40 -10 0 -20 -6
-23 -14z"/>
<path d="M844 2405 c-4 -9 -2 -21 4 -27 15 -15 44 -1 40 19 -4 23 -36 29 -44
8z"/>
<path d="M1740 2351 c0 -26 17 -36 35 -21 18 15 8 40 -16 40 -12 0 -19 -7 -19
-19z"/>
<path d="M713 2349 c-8 -8 -9 -18 -2 -30 12 -24 41 -13 37 14 -4 25 -19 32
-35 16z"/>
<path d="M1873 2274 c-3 -8 -1 -20 6 -27 14 -14 47 15 37 32 -10 16 -36 13
-43 -5z"/>
<path d="M580 2251 c0 -26 17 -36 35 -21 18 15 8 40 -16 40 -12 0 -19 -7 -19
-19z"/>
<path d="M337 2179 c-106 -25 -151 -76 -136 -155 13 -70 74 -191 134 -265 52
-64 205 -219 271 -273 31 -25 32 -28 32 -114 1 -349 274 -622 622 -622 103 0
180 18 276 65 84 41 98 42 118 14 10 -15 21 -20 36 -16 27 7 64 -25 132 -113
56 -74 85 -91 74 -43 -4 16 -21 75 -38 132 -29 93 -30 104 -16 115 14 10 13
14 -8 39 -28 32 -29 49 -10 104 27 77 56 247 56 330 0 169 -60 313 -180 434
-144 144 -355 215 -538 180 -40 -8 -50 -5 -155 50 -62 32 -153 72 -204 89
-153 51 -363 73 -466 49z m361 -168 c269 -75 607 -295 761 -494 76 -99 134
-210 157 -302 11 -45 -18 -28 -106 61 -197 199 -399 342 -624 443 -36 17 -66
29 -66 27 0 -2 24 -17 53 -34 145 -82 405 -302 519 -439 78 -93 188 -247 188
-262 0 -15 -88 -14 -130 1 -30 10 -32 12 -15 24 28 20 12 33 -189 153 -210
126 -332 208 -483 329 -131 105 -291 263 -333 328 -52 82 -34 150 46 174 50
15 152 11 222 -9z"/>
<path d="M1987 2176 c-3 -8 1 -20 10 -27 13 -11 17 -10 29 5 7 11 11 23 8 27
-8 14 -41 10 -47 -5z"/>
<path d="M2094 2065 c-4 -9 -2 -21 4 -27 15 -15 44 -1 40 19 -4 23 -36 29 -44
8z"/>
<path d="M2180 1931 c0 -27 19 -36 37 -18 18 18 9 37 -18 37 -12 0 -19 -7 -19
-19z"/>
<path d="M2251 1806 c-16 -19 -6 -36 20 -36 15 0 20 6 17 22 -4 27 -21 33 -37
14z"/>
<path d="M221 1776 c-16 -19 -6 -36 20 -36 15 0 20 6 17 22 -4 27 -21 33 -37
14z"/>
<path d="M2294 1655 c-4 -9 -2 -21 4 -27 15 -15 44 -1 40 19 -4 23 -36 29 -44
8z"/>
<path d="M174 1625 c-4 -9 -2 -21 4 -27 15 -15 44 -1 40 19 -4 23 -36 29 -44
8z"/>
<path d="M2324 1505 c-4 -9 -2 -21 4 -27 15 -15 44 -1 40 19 -4 23 -36 29 -44
8z"/>
<path d="M157 1483 c-15 -14 -7 -43 12 -43 26 0 36 17 21 35 -14 16 -23 19
-33 8z"/>
<path d="M2315 1340 c-10 -58 6 -71 92 -77 91 -7 117 6 111 53 -4 37 -2 39 36
24 31 -11 34 -35 6 -50 -25 -13 -26 -30 -2 -30 27 0 42 20 42 56 0 50 -18 58
-155 62 l-123 4 -7 -42z m179 -13 c15 -24 -6 -37 -64 -37 -62 0 -90 9 -90 29
0 28 11 32 79 29 48 -2 67 -7 75 -21z"/>
<path d="M88 1307 c-75 -27 -88 -35 -88 -54 0 -22 4 -23 83 -24 l82 -1 -78
-26 c-56 -19 -77 -31 -77 -43 0 -23 18 -27 124 -31 57 -1 91 2 93 8 4 11 -58
23 -126 25 -32 1 -29 3 37 26 53 18 72 29 72 43 0 20 -34 30 -109 31 l-46 1
73 25 c44 15 72 30 72 39 0 19 -11 17 -112 -19z"/>
<path d="M2303 1203 l2 -37 97 -17 c78 -12 98 -13 102 -3 6 15 -9 20 -79 30
-56 7 -95 27 -95 49 0 8 -7 15 -15 15 -10 0 -14 -10 -12 -37z"/>
<path d="M2293 1103 c-20 -14 -34 -62 -23 -82 11 -22 140 -65 168 -57 27 9 47
58 33 84 -18 34 -149 74 -178 55z m102 -42 c37 -13 51 -23 53 -39 5 -32 -19
-36 -80 -17 -62 20 -83 37 -75 59 8 20 38 19 102 -3z"/>
<path d="M133 1047 c-46 -28 -83 -54 -83 -57 0 -3 4 -11 9 -18 7 -12 21 -11
82 1 41 9 75 14 76 13 1 -1 -27 -19 -62 -40 -46 -27 -65 -44 -65 -58 0 -19 4
-20 58 -14 95 11 162 30 154 42 -5 9 -25 9 -77 -1 -38 -8 -71 -12 -73 -10 -2
1 24 19 57 40 41 24 61 43 61 56 0 23 -12 23 -100 4 -73 -15 -70 -9 22 43 45
25 63 52 36 52 -7 0 -50 -24 -95 -53z"/>
<path d="M2210 911 c0 -20 -3 -26 -18 -37 -12 -9 2 -20 71 -57 97 -52 112 -58
112 -39 0 7 -31 30 -70 51 -56 30 -70 42 -70 61 0 13 -6 25 -13 28 -6 2 -12
-1 -12 -7z"/>
<path d="M2383 884 c-9 -24 19 -37 34 -17 10 13 10 18 0 25 -18 12 -27 10 -34
-8z"/>
<path d="M235 810 c-58 -58 -67 -72 -59 -90 9 -20 10 -20 72 10 35 16 67 30
70 30 3 0 -18 -25 -48 -55 -47 -48 -52 -57 -40 -69 13 -13 27 -9 104 23 50 20
92 43 94 49 6 18 -13 15 -91 -18 l-72 -30 63 57 c57 53 62 60 49 77 -12 17
-16 17 -43 3 -16 -8 -47 -22 -69 -31 l-40 -17 54 55 c46 47 59 76 33 76 -4 0
-39 -31 -77 -70z"/>
<path d="M2138 783 c-39 -46 -34 -61 40 -113 67 -49 105 -52 126 -12 15 30 7
66 -18 75 -23 9 -30 -12 -11 -33 31 -34 -10 -55 -50 -26 -18 13 -18 14 3 44
12 16 22 33 22 36 0 10 -64 46 -81 46 -9 0 -23 -8 -31 -17z m64 -26 c15 -12
15 -14 -1 -36 -17 -22 -17 -22 -41 -3 -42 34 -2 72 42 39z"/>
<path d="M2055 681 c-3 -6 -3 -11 2 -11 4 0 -3 -6 -17 -13 -16 -8 -26 -23 -28
-41 -3 -23 6 -36 50 -77 59 -54 97 -63 121 -29 14 20 16 20 31 4 25 -25 16
-49 -18 -49 -38 0 -45 -22 -10 -31 22 -6 32 -2 51 20 13 15 23 34 23 42 0 13
-170 185 -190 192 -4 2 -11 -2 -15 -7z m72 -83 c46 -45 51 -59 28 -78 -12 -10
-24 -3 -69 40 -56 53 -63 80 -23 80 12 0 41 -19 64 -42z"/>
<path d="M436 548 c-48 -51 -64 -74 -56 -82 8 -8 26 6 65 48 45 48 59 58 80
54 14 -3 28 -2 31 3 5 9 -31 49 -45 49 -5 0 -39 -32 -75 -72z"/>
<path d="M305 560 c-4 -7 -3 -16 3 -22 14 -14 45 -2 40 15 -6 16 -34 21 -43 7z"/>
<path d="M1766 552 c-7 -12 142 -246 159 -250 8 -2 15 0 15 4 0 13 -153 254
-161 254 -4 0 -10 -4 -13 -8z"/>
<path d="M1912 544 c-32 -22 -27 -50 18 -110 52 -69 73 -81 106 -59 32 21 39
40 25 71 -15 33 -32 21 -24 -16 7 -37 -19 -51 -47 -25 -27 24 -25 32 10 62
l30 25 -27 33 c-31 37 -57 43 -91 19z m62 -32 c15 -18 15 -20 -5 -38 -20 -18
-21 -18 -35 1 -33 45 2 78 40 37z"/>
<path d="M566 521 c-21 -24 -5 -37 23 -19 31 19 49 -2 32 -38 -11 -25 -12 -25
-36 -10 -35 23 -61 20 -85 -11 -25 -32 -23 -72 5 -87 10 -6 26 -17 33 -24 12
-11 23 -2 68 60 59 80 64 98 34 128 -25 25 -52 26 -74 1z m14 -91 c12 -7 11
-13 -10 -34 -26 -29 -48 -33 -56 -12 -14 37 30 69 66 46z"/>
<path d="M672 375 c-24 -46 -43 -88 -43 -92 2 -24 26 0 60 62 37 68 62 88 84
66 7 -7 -2 -34 -31 -90 -47 -90 -48 -91 -27 -91 21 0 98 156 90 181 -4 12 -19
22 -36 26 -16 3 -29 9 -29 14 0 5 -6 9 -12 9 -7 0 -32 -38 -56 -85z"/>
<path d="M977 443 c-2 -4 -10 -24 -16 -44 -11 -36 -13 -37 -42 -26 -43 17 -60
1 -88 -76 -30 -87 -24 -113 30 -127 23 -6 45 -8 49 -3 4 4 27 66 50 136 28 86
39 132 32 139 -5 5 -12 6 -15 1z m-48 -115 c0 -13 -8 -45 -18 -73 -15 -41 -22
-51 -44 -53 -34 -4 -35 15 -6 93 17 46 24 55 45 55 18 0 24 -5 23 -22z"/>
<path d="M1685 407 c-11 -7 -22 -13 -24 -14 -5 -3 68 -175 80 -187 21 -23 18
26 -5 79 -28 62 -33 101 -14 107 6 2 8 10 4 16 -9 15 -15 14 -41 -1z"/>
<path d="M1543 355 c-27 -19 -28 -40 -6 -118 20 -73 47 -96 90 -75 21 10 29
22 31 46 2 24 -1 32 -12 32 -10 0 -16 -9 -16 -25 0 -27 -25 -44 -40 -29 -5 5
-11 21 -15 35 -6 24 -3 27 29 33 19 4 38 10 40 15 3 4 -5 28 -17 52 -24 49
-49 59 -84 34z m59 -41 c10 -21 9 -27 -3 -35 -25 -16 -44 -5 -47 29 -3 27 0
32 18 32 12 0 25 -10 32 -26z"/>
<path d="M1795 358 c-28 -15 -28 -15 -20 -27 7 -13 65 13 65 29 0 13 -20 12
-45 -2z"/>
<path d="M1032 323 c-17 -16 -42 -104 -42 -150 0 -21 38 -53 63 -53 35 0 54
28 67 98 13 74 7 100 -27 113 -33 12 -38 12 -61 -8z m64 -26 c2 -7 -1 -42 -8
-77 -11 -55 -16 -65 -36 -68 -13 -2 -24 3 -28 12 -5 14 12 121 23 139 7 12 43
8 49 -6z"/>
<path d="M1373 323 c-27 -5 -27 -7 -11 -124 8 -61 16 -89 25 -89 15 0 16 24 3
104 -10 62 -1 96 24 96 18 0 22 -13 36 -109 11 -76 21 -94 35 -72 7 12 -12
147 -25 179 -10 22 -31 26 -87 15z"/>
<path d="M1180 214 c0 -86 3 -104 15 -104 12 0 15 16 15 84 0 65 4 87 16 97
30 24 46 -15 42 -104 -2 -54 0 -77 9 -77 28 0 30 184 2 201 -8 4 -33 8 -56 7
l-43 -1 0 -103z"/>
</g>
</svg>
