<svg version="1" xmlns="http://www.w3.org/2000/svg" width="346.667" height="346.667" viewBox="0 0 260.000000 260.000000"><path d="M16.2 27.5C5.1 30.6 0 35.3 0 42.4c0 4.7 3.4 15.4 7.2 23.1C13 76.8 28.9 94.9 47.3 111l8.8 7.7.3 12.4c.5 17.3 4 29.1 12.6 42.3 19 29.1 54.9 42.7 88.1 33.5 4-1.1 11.2-4 16-6.5 7.3-3.8 9-4.3 11.3-3.5 1.7.7 2.6 1.8 2.6 3.2 0 1.9.4 2 3.5 1.5 4.8-.9 7.4 1 15.9 12.3 8.1 10.7 10.5 13.2 10.7 11 .3-3.4-.6-7.2-4.2-18.8-4.4-14.2-4.6-15.6-2.1-17 1.6-.9 1.5-1.2-.9-3.8-3.9-4.2-4.1-5.9-1.9-13.2 2.5-8 5.7-22.8 7.2-33.4 1.5-9.9 0-23.2-3.7-34.2-11.8-35.7-49.4-59-86.2-53.6l-8.1 1.2-6.3-3.7C96.1 39.7 77.2 32.3 60 28.5c-10.7-2.3-36.8-3-43.8-1zm54.8 23c27.1 9.1 64.5 32.3 81.5 50.7 12.6 13.6 22.8 29.7 27.4 43.5 2.3 7 2.6 9.3 1 9.3-.6 0-8.2-7-17-15.4-16.5-16.1-33.4-29.5-47.9-38.3-11.4-6.9-40-21.1-40-19.9 0 .2 3.9 2.6 8.8 5.4 24.7 14.3 54.5 40 73.3 63.2 9.3 11.4 19.1 26 18.6 27.4-.5 1.5-13 1.1-16.8-.4l-3-1.3 2.1-2.2 2.2-2.3-4.4-3c-2.4-1.6-13.3-8.2-24.3-14.7-22-12.9-36.6-22.6-52.5-34.9-28.5-22-47.9-41.4-53.2-53.2-1.7-4-1.9-5.2-.9-8.5 2.2-7.3 8.9-10 23.6-9.5 8.4.3 11.8.9 21.5 4.1z"/></svg>